<svg xmlns="http://www.w3.org/2000/svg" xml:lang="en" height="200.2453pt" width="189.20000000000005pt" viewBox="-4.600000000000009 -132.64530000000002 189.20000000000005 200.2453"><path d="M 0.0,-0.0 L 1.6532731788489267e-15,-27.0 L 3.3065463576978533e-15,-54.0" style="stroke:black;fill:none;stroke-width:2.0;stroke-linecap:round;stroke-linejoin:round;" /><path d="M 3.3065463576978533e-15,-54.0 L 18.000000000000004,-54.0 L 36.0,-54.0" style="stroke:black;fill:none;stroke-width:2.0;stroke-linecap:round;stroke-linejoin:round;" /><path d="M 36.0,-54.0 L 36.0,-72.0 L 36.0,-90.0" style="stroke:black;fill:none;stroke-width:2.0;stroke-linecap:round;stroke-linejoin:round;" /><path d="M 36.0,-90.0 L 90.0,-90.0 M 81.0,-99.0 L 99.0,-81.0 M 99.0,-99.0 L 81.0,-81.0 M 90.0,-90.0 L 144.0,-90.0" style="stroke:black;fill:none;stroke-width:2.0;stroke-linecap:round;stroke-linejoin:round;" /><path d="M 144.0,-90.0 L 144.0,-72.0 L 144.0,-54.0" style="stroke:black;fill:none;stroke-width:2.0;stroke-linecap:round;stroke-linejoin:round;" /><path d="M 36.0,-54.0 L 35.99999999999999,-36.0 L 35.99999999999999,-18.0" style="stroke:black;fill:none;stroke-width:2.0;stroke-linecap:round;stroke-linejoin:round;" /><path d="M 35.99999999999999,-18.0 L 90.0,-18.0 M 81.0,-27.0 L 99.0,-9.0 M 99.0,-27.0 L 81.0,-9.0 M 90.0,-18.0 L 144.0,-18.0" style="stroke:black;fill:none;stroke-width:2.0;stroke-linecap:round;stroke-linejoin:round;" /><path d="M 144.0,-18.0 L 144.0,-36.0 L 144.0,-54.0" style="stroke:black;fill:none;stroke-width:2.0;stroke-linecap:round;stroke-linejoin:round;" /><path d="M 144.0,-54.0 L 162.0,-54.0 L 180.0,-54.0" style="stroke:black;fill:none;stroke-width:2.0;stroke-linecap:round;stroke-linejoin:round;" /><path d="M 180.0,-54.0 L 180.0,-27.0 L 180.0,-0.0" style="stroke:black;fill:none;stroke-width:2.0;stroke-linecap:round;stroke-linejoin:round;" /><path d="M 0.0,-0.0 L -4.9598195365467806e-15,27.0 L -9.919639073093561e-15,54.0" style="stroke:black;fill:none;stroke-width:2.0;stroke-linecap:round;stroke-linejoin:round;" /><path d="M -9.919639073093561e-15,54.0 L 86.75999999999999,54.0 M 86.75999999999999,45.0 L 86.75999999999999,63.0 M 93.24,45.0 L 93.24,63.0 M 93.24,54.0 L 180.0,54.0" style="stroke:black;fill:none;stroke-width:2.0;stroke-linecap:round;stroke-linejoin:round;" /><path d="M 180.0,54.0 L 180.0,27.0 L 180.0,-0.0" style="stroke:black;fill:none;stroke-width:2.0;stroke-linecap:round;stroke-linejoin:round;" /><g><g><g><path d="M 81.24 -116.302 L 81.24 -116.302 L 83.126 -125.364 Q 83.333 -126.261 83.322 -126.778 Q 83.31 -127.296 82.896 -127.502 Q 82.482 -127.71 81.424 -127.71 L 81.562 -128.399 L 87.933 -128.399 L 87.795 -127.71 Q 86.783 -127.71 86.277 -127.502 Q 85.771 -127.296 85.564 -126.778 Q 85.357 -126.261 85.173 -125.364 L 83.287 -116.21 Q 83.218 -115.841 83.172 -115.543 Q 83.126 -115.243 83.126 -114.99 Q 83.126 -114.347 83.506 -114.162 Q 83.885 -113.978 84.966 -113.978 L 84.828 -113.288 L 78.549 -113.288 L 78.687 -113.978 Q 79.63 -113.978 80.102 -114.139 Q 80.573 -114.3 80.803 -114.795 Q 81.033 -115.29 81.24 -116.302 Z " fill="black" /><path d="M 100.427 -115.365 L 100.427 -115.365 Q 100.427 -113.546 99.775 -112.145 Q 99.123 -110.745 97.98 -109.827 Q 96.837 -108.909 95.356 -108.523 L 95.356 -108.442 Q 95.758 -107.734 96.193 -107.211 Q 96.627 -106.688 97.312 -106.398 Q 97.996 -106.108 99.107 -106.108 L 98.994 -105.48 L 98.028 -105.48 Q 96.756 -105.48 95.911 -105.681 Q 95.066 -105.883 94.543 -106.349 Q 94.019 -106.816 93.697 -107.573 L 93.407 -108.33 Q 91.218 -108.459 90.147 -109.569 Q 89.077 -110.68 89.06 -112.805 Q 89.06 -114.335 89.568 -115.647 Q 90.075 -116.959 90.984 -117.933 Q 91.894 -118.907 93.142 -119.447 Q 94.39 -119.986 95.855 -119.986 Q 97.352 -119.986 98.374 -119.382 Q 99.397 -118.779 99.912 -117.74 Q 100.427 -116.702 100.427 -115.365 Z M 98.463 -115.559 L 98.463 -115.559 Q 98.463 -117.233 97.738 -118.167 Q 97.014 -119.101 95.549 -119.101 Q 94.293 -119.101 93.263 -118.312 Q 92.232 -117.523 91.628 -116.074 Q 91.025 -114.625 91.025 -112.644 Q 91.025 -110.986 91.693 -110.052 Q 92.361 -109.119 93.874 -109.119 Q 95.114 -109.119 95.983 -109.65 Q 96.853 -110.181 97.4 -111.083 Q 97.948 -111.984 98.205 -113.144 Q 98.463 -114.303 98.463 -115.559 Z " fill="black" /></g></g></g><g><g><g><path d="M 81.24 -44.301 L 81.24 -44.301 L 83.126 -53.364 Q 83.333 -54.261 83.322 -54.778 Q 83.31 -55.296 82.896 -55.502 Q 82.482 -55.709 81.424 -55.709 L 81.562 -56.4 L 87.933 -56.4 L 87.795 -55.709 Q 86.783 -55.709 86.277 -55.502 Q 85.771 -55.296 85.564 -54.778 Q 85.357 -54.261 85.173 -53.364 L 83.287 -44.209 Q 83.218 -43.841 83.172 -43.542 Q 83.126 -43.243 83.126 -42.99 Q 83.126 -42.346 83.506 -42.163 Q 83.885 -41.978 84.966 -41.978 L 84.828 -41.288 L 78.549 -41.288 L 78.687 -41.978 Q 79.63 -41.978 80.102 -42.139 Q 80.573 -42.3 80.803 -42.795 Q 81.033 -43.289 81.24 -44.301 Z " fill="black" /><path d="M 100.427 -43.365 L 100.427 -43.365 Q 100.427 -41.546 99.775 -40.145 Q 99.123 -38.745 97.98 -37.827 Q 96.837 -36.909 95.356 -36.523 L 95.356 -36.442 Q 95.758 -35.734 96.193 -35.211 Q 96.627 -34.688 97.312 -34.398 Q 97.996 -34.108 99.107 -34.108 L 98.994 -33.48 L 98.028 -33.48 Q 96.756 -33.48 95.911 -33.681 Q 95.066 -33.883 94.543 -34.349 Q 94.019 -34.816 93.697 -35.573 L 93.407 -36.33 Q 91.218 -36.459 90.147 -37.569 Q 89.077 -38.68 89.06 -40.806 Q 89.06 -42.335 89.568 -43.647 Q 90.075 -44.959 90.984 -45.933 Q 91.894 -46.907 93.142 -47.447 Q 94.39 -47.986 95.855 -47.986 Q 97.352 -47.986 98.374 -47.382 Q 99.397 -46.779 99.912 -45.74 Q 100.427 -44.702 100.427 -43.365 Z M 98.463 -43.559 L 98.463 -43.559 Q 98.463 -45.233 97.738 -46.167 Q 97.014 -47.101 95.549 -47.101 Q 94.293 -47.101 93.263 -46.312 Q 92.232 -45.523 91.628 -44.074 Q 91.025 -42.625 91.025 -40.645 Q 91.025 -38.986 91.693 -38.052 Q 92.361 -37.119 93.874 -37.119 Q 95.114 -37.119 95.983 -37.65 Q 96.853 -38.181 97.4 -39.083 Q 97.948 -39.984 98.205 -41.144 Q 98.463 -42.303 98.463 -43.559 Z " fill="black" /></g></g></g><g><g><g><path d="M 89.739 27.377 L 89.739 27.377 L 90.153 27.814 Q 88.98 29.194 87.439 30.079 Q 85.898 30.965 83.713 30.965 Q 81.643 30.965 80.401 30.194 Q 79.159 29.424 78.618 28.136 Q 78.078 26.848 78.078 25.33 Q 78.078 22.915 78.814 21.04 Q 79.55 19.166 80.826 17.889 Q 82.103 16.613 83.713 15.957 Q 85.323 15.302 87.071 15.302 Q 88.244 15.302 88.899 15.509 Q 89.555 15.716 89.923 15.934 Q 90.291 16.153 90.567 16.153 Q 90.843 16.153 91.05 15.923 Q 91.257 15.693 91.533 15.325 L 92.2 15.325 L 91.119 20.592 L 90.36 20.592 Q 90.452 18.292 89.509 17.291 Q 88.566 16.291 86.864 16.291 Q 85.53 16.291 84.357 16.9 Q 83.184 17.51 82.275 18.625 Q 81.367 19.741 80.849 21.293 Q 80.332 22.846 80.332 24.755 Q 80.332 27.055 81.424 28.262 Q 82.517 29.47 84.794 29.47 Q 87.439 29.47 89.739 27.377 Z " fill="black" /><path d="M 103.958 28.635 L 103.958 28.635 Q 103.958 30.454 103.305 31.855 Q 102.653 33.255 101.51 34.173 Q 100.367 35.091 98.886 35.477 L 98.886 35.558 Q 99.289 36.266 99.723 36.789 Q 100.158 37.313 100.842 37.602 Q 101.526 37.892 102.637 37.892 L 102.525 38.52 L 101.559 38.52 Q 100.287 38.52 99.441 38.319 Q 98.596 38.118 98.073 37.651 Q 97.55 37.184 97.228 36.427 L 96.938 35.67 Q 94.748 35.542 93.678 34.431 Q 92.607 33.32 92.591 31.195 Q 92.591 29.665 93.098 28.353 Q 93.605 27.041 94.515 26.067 Q 95.425 25.093 96.672 24.553 Q 97.92 24.014 99.385 24.014 Q 100.882 24.014 101.905 24.618 Q 102.927 25.221 103.442 26.26 Q 103.958 27.298 103.958 28.635 Z M 101.993 28.441 L 101.993 28.441 Q 101.993 26.767 101.269 25.833 Q 100.544 24.899 99.079 24.899 Q 97.823 24.899 96.793 25.688 Q 95.763 26.477 95.159 27.926 Q 94.555 29.375 94.555 31.356 Q 94.555 33.014 95.223 33.948 Q 95.891 34.881 97.405 34.881 Q 98.645 34.881 99.514 34.35 Q 100.383 33.819 100.931 32.917 Q 101.478 32.016 101.736 30.856 Q 101.993 29.697 101.993 28.441 Z " fill="black" /></g></g></g></svg>