<svg xmlns="http://www.w3.org/2000/svg" xml:lang="en" height="413.3975pt" width="632.7186pt" viewBox="-4.600000000000053 -75.7975 632.7186 413.3975"><path d="M 144.0 -36.0 a 4.5 4.5 0 1 1 9.0 0.0" style="stroke:black;fill:none;stroke-width:2;" /><path d="M 153.0 -36.0 a 4.5 4.5 0 1 1 9.0 0.0" style="stroke:black;fill:none;stroke-width:2;" /><path d="M 162.0 -36.0 a 4.5 4.5 0 1 1 9.0 0.0" style="stroke:black;fill:none;stroke-width:2;" /><path d="M 171.0 -36.0 a 4.5 4.5 0 1 1 9.0 0.0" style="stroke:black;fill:none;stroke-width:2;" /><path d="M 144.0 108.0 a 4.5 4.5 0 1 1 9.0 0.0" style="stroke:black;fill:none;stroke-width:2;" /><path d="M 153.0 108.0 a 4.5 4.5 0 1 1 9.0 0.0" style="stroke:black;fill:none;stroke-width:2;" /><path d="M 162.0 108.0 a 4.5 4.5 0 1 1 9.0 0.0" style="stroke:black;fill:none;stroke-width:2;" /><path d="M 171.0 108.0 a 4.5 4.5 0 1 1 9.0 0.0" style="stroke:black;fill:none;stroke-width:2;" /><path d="M 144.0 252.0 a 4.5 4.5 0 1 1 9.0 0.0" style="stroke:black;fill:none;stroke-width:2;" /><path d="M 153.0 252.0 a 4.5 4.5 0 1 1 9.0 0.0" style="stroke:black;fill:none;stroke-width:2;" /><path d="M 162.0 252.0 a 4.5 4.5 0 1 1 9.0 0.0" style="stroke:black;fill:none;stroke-width:2;" /><path d="M 171.0 252.0 a 4.5 4.5 0 1 1 9.0 0.0" style="stroke:black;fill:none;stroke-width:2;" /><path d="M 0.0,-0.0 L -2.6452370861582827e-14,144.0 L -5.2904741723165653e-14,288.0" style="stroke:black;fill:none;stroke-width:2;stroke-linecap:round;stroke-linejoin:round;" /><path d="M 0.0,-0.0 L 54.0,-0.0 L 108.0,-0.0" style="stroke:black;fill:none;stroke-width:2;stroke-linecap:round;stroke-linejoin:round;" /><path d="M 108.0,-0.0 L 108.0,-18.0 L 108.0,-36.0" style="stroke:black;fill:none;stroke-width:2;stroke-linecap:round;stroke-linejoin:round;" /><path d="M 108.0,-36.0 L 144.0,-36.0 M 180.0,-36.0 L 216.0,-36.0" style="stroke:black;fill:none;stroke-width:2;stroke-linecap:round;stroke-linejoin:round;" /><path d="M 216.0,-36.0 L 216.0,-18.0 L 216.0,-0.0" style="stroke:black;fill:none;stroke-width:2;stroke-linecap:round;stroke-linejoin:round;" /><path d="M 108.0,-0.0 L 108.0,18.0 L 108.0,36.0" style="stroke:black;fill:none;stroke-width:2;stroke-linecap:round;stroke-linejoin:round;" /><path d="M 108.0,36.0 L 158.76,36.0 M 158.76,27.0 L 158.76,45.0 M 165.24,27.0 L 165.24,45.0 M 165.24,36.0 L 216.0,36.0" style="stroke:black;fill:none;stroke-width:2;stroke-linecap:round;stroke-linejoin:round;" /><path d="M 216.0,36.0 L 216.0,18.0 L 216.0,-0.0" style="stroke:black;fill:none;stroke-width:2;stroke-linecap:round;stroke-linejoin:round;" /><path d="M 216.0,-0.0 L 270.0,-0.0 L 324.0,-0.0" style="stroke:black;fill:none;stroke-width:2;stroke-linecap:round;stroke-linejoin:round;" /><path d="M 324.0,-0.0 L 324.0,-18.0 L 324.0,-36.0" style="stroke:black;fill:none;stroke-width:2;stroke-linecap:round;stroke-linejoin:round;" /><path d="M 324.0,-36.0 L 378.0,-36.0 M 369.0,-45.0 L 387.0,-27.0 M 387.0,-45.0 L 369.0,-27.0 M 378.0,-36.0 L 432.0,-36.0" style="stroke:black;fill:none;stroke-width:2;stroke-linecap:round;stroke-linejoin:round;" /><path d="M 432.0,-36.0 L 432.0,-18.0 L 432.0,-0.0" style="stroke:black;fill:none;stroke-width:2;stroke-linecap:round;stroke-linejoin:round;" /><path d="M 324.0,-0.0 L 324.0,18.0 L 324.0,36.0" style="stroke:black;fill:none;stroke-width:2;stroke-linecap:round;stroke-linejoin:round;" /><path d="M 324.0,36.0 L 374.76,36.0 M 374.76,27.0 L 374.76,45.0 M 381.24,27.0 L 381.24,45.0 M 381.24,36.0 L 432.0,36.0" style="stroke:black;fill:none;stroke-width:2;stroke-linecap:round;stroke-linejoin:round;" /><path d="M 432.0,36.0 L 432.0,18.0 L 432.0,-0.0" style="stroke:black;fill:none;stroke-width:2;stroke-linecap:round;stroke-linejoin:round;" /><path d="M 432.0,-0.0 L 486.0,-0.0 L 540.0,-0.0" style="stroke:black;fill:none;stroke-width:2;stroke-linecap:round;stroke-linejoin:round;" /><path d="M 540.0,-0.0 L 540.0,72.0 M 549.0,63.0 L 531.0,81.0 M 549.0,81.0 L 531.0,63.0 M 540.0,72.0 L 540.0,144.0" style="stroke:black;fill:none;stroke-width:2;stroke-linecap:round;stroke-linejoin:round;" /><path d="M 0.0,144.0 L 54.0,144.0 L 108.0,144.0" style="stroke:black;fill:none;stroke-width:2;stroke-linecap:round;stroke-linejoin:round;" /><path d="M 108.0,144.0 L 108.0,126.0 L 108.0,108.0" style="stroke:black;fill:none;stroke-width:2;stroke-linecap:round;stroke-linejoin:round;" /><path d="M 108.0,108.0 L 144.0,108.0 M 180.0,108.0 L 216.0,108.0" style="stroke:black;fill:none;stroke-width:2;stroke-linecap:round;stroke-linejoin:round;" /><path d="M 216.0,108.0 L 216.0,126.0 L 216.0,144.0" style="stroke:black;fill:none;stroke-width:2;stroke-linecap:round;stroke-linejoin:round;" /><path d="M 108.0,144.0 L 108.0,162.0 L 108.0,180.0" style="stroke:black;fill:none;stroke-width:2;stroke-linecap:round;stroke-linejoin:round;" /><path d="M 108.0,180.0 L 158.76,180.0 M 158.76,171.0 L 158.76,189.0 M 165.24,171.0 L 165.24,189.0 M 165.24,180.0 L 216.0,180.0" style="stroke:black;fill:none;stroke-width:2;stroke-linecap:round;stroke-linejoin:round;" /><path d="M 216.0,180.0 L 216.0,162.0 L 216.0,144.0" style="stroke:black;fill:none;stroke-width:2;stroke-linecap:round;stroke-linejoin:round;" /><path d="M 216.0,144.0 L 270.0,144.0 L 324.0,144.0" style="stroke:black;fill:none;stroke-width:2;stroke-linecap:round;stroke-linejoin:round;" /><path d="M 324.0,144.0 L 324.0,126.0 L 324.0,108.0" style="stroke:black;fill:none;stroke-width:2;stroke-linecap:round;stroke-linejoin:round;" /><path d="M 324.0,108.0 L 378.0,108.0 M 369.0,99.0 L 387.0,117.0 M 387.0,99.0 L 369.0,117.0 M 378.0,108.0 L 432.0,108.0" style="stroke:black;fill:none;stroke-width:2;stroke-linecap:round;stroke-linejoin:round;" /><path d="M 432.0,108.0 L 432.0,126.0 L 432.0,144.0" style="stroke:black;fill:none;stroke-width:2;stroke-linecap:round;stroke-linejoin:round;" /><path d="M 324.0,144.0 L 324.0,162.0 L 324.0,180.0" style="stroke:black;fill:none;stroke-width:2;stroke-linecap:round;stroke-linejoin:round;" /><path d="M 324.0,180.0 L 374.76,180.0 M 374.76,171.0 L 374.76,189.0 M 381.24,171.0 L 381.24,189.0 M 381.24,180.0 L 432.0,180.0" style="stroke:black;fill:none;stroke-width:2;stroke-linecap:round;stroke-linejoin:round;" /><path d="M 432.0,180.0 L 432.0,162.0 L 432.0,144.0" style="stroke:black;fill:none;stroke-width:2;stroke-linecap:round;stroke-linejoin:round;" /><path d="M 432.0,144.0 L 486.0,144.0 L 540.0,144.0" style="stroke:black;fill:none;stroke-width:2;stroke-linecap:round;stroke-linejoin:round;" /><path d="M 540.0,144.0 L 540.0,216.0 M 549.0,207.0 L 531.0,225.0 M 549.0,225.0 L 531.0,207.0 M 540.0,216.0 L 540.0,288.0" style="stroke:black;fill:none;stroke-width:2;stroke-linecap:round;stroke-linejoin:round;" /><path d="M 0.0,288.0 L 54.0,288.0 L 108.0,288.0" style="stroke:black;fill:none;stroke-width:2;stroke-linecap:round;stroke-linejoin:round;" /><path d="M 108.0,288.0 L 108.0,270.0 L 108.0,252.0" style="stroke:black;fill:none;stroke-width:2;stroke-linecap:round;stroke-linejoin:round;" /><path d="M 108.0,252.0 L 144.0,252.0 M 180.0,252.0 L 216.0,252.0" style="stroke:black;fill:none;stroke-width:2;stroke-linecap:round;stroke-linejoin:round;" /><path d="M 216.0,252.0 L 216.0,270.0 L 216.0,288.0" style="stroke:black;fill:none;stroke-width:2;stroke-linecap:round;stroke-linejoin:round;" /><path d="M 108.0,288.0 L 108.0,306.0 L 108.0,324.0" style="stroke:black;fill:none;stroke-width:2;stroke-linecap:round;stroke-linejoin:round;" /><path d="M 108.0,324.0 L 158.76,324.0 M 158.76,315.0 L 158.76,333.0 M 165.24,315.0 L 165.24,333.0 M 165.24,324.0 L 216.0,324.0" style="stroke:black;fill:none;stroke-width:2;stroke-linecap:round;stroke-linejoin:round;" /><path d="M 216.0,324.0 L 216.0,306.0 L 216.0,288.0" style="stroke:black;fill:none;stroke-width:2;stroke-linecap:round;stroke-linejoin:round;" /><path d="M 216.0,288.0 L 270.0,288.0 L 324.0,288.0" style="stroke:black;fill:none;stroke-width:2;stroke-linecap:round;stroke-linejoin:round;" /><path d="M 324.0,288.0 L 324.0,270.0 L 324.0,252.0" style="stroke:black;fill:none;stroke-width:2;stroke-linecap:round;stroke-linejoin:round;" /><path d="M 324.0,252.0 L 378.0,252.0 M 369.0,243.0 L 387.0,261.0 M 387.0,243.0 L 369.0,261.0 M 378.0,252.0 L 432.0,252.0" style="stroke:black;fill:none;stroke-width:2;stroke-linecap:round;stroke-linejoin:round;" /><path d="M 432.0,252.0 L 432.0,270.0 L 432.0,288.0" style="stroke:black;fill:none;stroke-width:2;stroke-linecap:round;stroke-linejoin:round;" /><path d="M 324.0,288.0 L 324.0,306.0 L 324.0,324.0" style="stroke:black;fill:none;stroke-width:2;stroke-linecap:round;stroke-linejoin:round;" /><path d="M 324.0,324.0 L 374.76,324.0 M 374.76,315.0 L 374.76,333.0 M 381.24,315.0 L 381.24,333.0 M 381.24,324.0 L 432.0,324.0" style="stroke:black;fill:none;stroke-width:2;stroke-linecap:round;stroke-linejoin:round;" /><path d="M 432.0,324.0 L 432.0,306.0 L 432.0,288.0" style="stroke:black;fill:none;stroke-width:2;stroke-linecap:round;stroke-linejoin:round;" /><path d="M 432.0,288.0 L 486.0,288.0 L 540.0,288.0" style="stroke:black;fill:none;stroke-width:2;stroke-linecap:round;stroke-linejoin:round;" /><path d="M 540.0,288.0 L 558.0,288.0 L 576.0,288.0" style="stroke:black;fill:none;stroke-width:2;stroke-linecap:round;stroke-linejoin:round;" /><path d="M 576.0,288.0 L 576.0,144.0 M 567.0,153.0 L 585.0,135.0 M 567.0,135.0 L 585.0,153.0 M 576.0,144.0 L 576.0,-0.0" style="stroke:black;fill:none;stroke-width:2;stroke-linecap:round;stroke-linejoin:round;" /><path d="M 576.0,-0.0 L 558.0,-2.204364238465236e-15 L 540.0,-4.408728476930472e-15" style="stroke:black;fill:none;stroke-width:2;stroke-linecap:round;stroke-linejoin:round;" /><g><g><g><path d="M 155.108 -57.192 L 155.108 -57.192 L 153.728 -52.707 L 142.366 -52.707 L 142.504 -53.397 Q 143.401 -53.397 143.873 -53.558 Q 144.344 -53.719 144.597 -54.179 Q 144.85 -54.639 145.034 -55.559 L 147.012 -65.15 Q 147.173 -65.909 147.127 -66.346 Q 147.081 -66.783 146.656 -66.956 Q 146.23 -67.128 145.241 -67.128 L 145.379 -67.818 L 151.911 -67.818 L 151.796 -67.128 Q 150.554 -67.128 149.933 -66.749 Q 149.312 -66.369 149.059 -65.127 L 146.966 -54.823 Q 146.805 -54.064 147.127 -53.823 Q 147.449 -53.581 148.461 -53.581 L 149.542 -53.581 Q 150.646 -53.581 151.336 -53.777 Q 152.026 -53.972 152.509 -54.386 Q 152.992 -54.8 153.418 -55.502 Q 153.843 -56.203 154.372 -57.192 Z " fill="black" /><path d="M 162.337 -53.512 L 162.337 -53.512 L 162.337 -53.448 Q 163.029 -53.335 163.665 -53.029 Q 164.301 -52.723 164.72 -52.168 Q 165.138 -51.612 165.138 -50.727 Q 165.138 -49.358 164.116 -48.618 Q 163.094 -47.877 161.29 -47.877 L 156.332 -47.877 L 156.332 -48.36 Q 156.992 -48.36 157.322 -48.473 Q 157.652 -48.585 157.773 -48.924 Q 157.893 -49.262 157.893 -49.922 L 157.893 -56.507 Q 157.893 -57.151 157.773 -57.465 Q 157.652 -57.779 157.322 -57.875 Q 156.992 -57.972 156.332 -57.972 L 156.332 -58.455 L 160.679 -58.455 Q 162.836 -58.455 163.73 -57.795 Q 164.623 -57.135 164.623 -55.943 Q 164.623 -54.864 163.979 -54.325 Q 163.335 -53.786 162.337 -53.512 Z M 159.375 -53.029 L 159.375 -53.029 L 159.375 -48.521 Q 159.954 -48.473 160.534 -48.473 Q 161.049 -48.473 161.564 -48.537 Q 162.079 -48.602 162.506 -48.819 Q 162.933 -49.036 163.19 -49.479 Q 163.448 -49.922 163.448 -50.695 Q 163.448 -51.612 163.021 -52.119 Q 162.595 -52.627 161.926 -52.828 Q 161.258 -53.029 160.502 -53.029 Z M 159.375 -53.705 L 159.375 -53.705 L 160.469 -53.705 Q 161.934 -53.705 162.482 -54.212 Q 163.029 -54.72 163.029 -55.814 Q 163.029 -56.764 162.425 -57.296 Q 161.822 -57.827 160.341 -57.827 Q 159.858 -57.827 159.375 -57.779 Z " fill="black" /><path d="M 166.33 -50.517 L 166.33 -50.517 L 166.748 -50.517 Q 167.006 -49.278 167.505 -48.787 Q 168.004 -48.296 168.89 -48.296 Q 169.501 -48.296 169.888 -48.545 Q 170.274 -48.795 170.274 -49.358 Q 170.274 -49.745 170.137 -50.002 Q 170.001 -50.26 169.614 -50.526 Q 169.228 -50.791 168.471 -51.161 Q 167.376 -51.725 166.861 -52.248 Q 166.346 -52.771 166.346 -53.657 Q 166.346 -54.655 167.062 -55.17 Q 167.779 -55.686 168.809 -55.686 Q 169.421 -55.686 169.807 -55.549 Q 170.194 -55.412 170.5 -55.267 L 170.516 -55.267 L 170.789 -55.605 L 171.111 -55.605 L 171.16 -53.142 L 170.725 -53.142 Q 170.467 -54.285 170.001 -54.712 Q 169.534 -55.138 168.793 -55.138 Q 168.246 -55.138 167.867 -54.881 Q 167.489 -54.623 167.489 -54.076 Q 167.489 -53.609 167.924 -53.238 Q 168.358 -52.868 169.373 -52.353 Q 170.467 -51.773 171.047 -51.234 Q 171.627 -50.695 171.627 -49.793 Q 171.627 -49.036 171.256 -48.577 Q 170.886 -48.119 170.266 -47.909 Q 169.646 -47.7 168.922 -47.7 Q 168.23 -47.7 167.819 -47.845 Q 167.408 -47.99 167.086 -48.119 L 167.054 -48.119 L 166.716 -47.748 L 166.378 -47.748 Z " fill="black" /><path d="M 179.805 -52.82 L 179.805 -52.82 L 179.805 -49.503 Q 179.805 -49.052 179.878 -48.795 Q 179.95 -48.537 180.208 -48.433 Q 180.466 -48.328 180.997 -48.328 L 180.997 -47.877 L 177.278 -47.877 L 177.278 -48.328 Q 177.857 -48.328 178.107 -48.433 Q 178.356 -48.537 178.413 -48.795 Q 178.469 -49.052 178.469 -49.503 L 178.469 -52.417 Q 178.469 -53.383 178.252 -53.866 Q 178.034 -54.349 177.696 -54.502 Q 177.358 -54.655 176.988 -54.655 Q 176.344 -54.655 175.877 -54.309 Q 175.41 -53.963 175.04 -53.641 L 175.04 -49.503 Q 175.04 -49.052 175.104 -48.795 Q 175.169 -48.537 175.426 -48.433 Q 175.684 -48.328 176.263 -48.328 L 176.263 -47.877 L 172.577 -47.877 L 172.577 -48.328 Q 173.124 -48.328 173.357 -48.433 Q 173.591 -48.537 173.647 -48.795 Q 173.704 -49.052 173.704 -49.503 L 173.704 -54.027 Q 173.704 -54.462 173.526 -54.599 Q 173.349 -54.736 173.027 -54.736 Q 172.818 -54.736 172.705 -54.72 Q 172.593 -54.703 172.593 -54.703 L 172.593 -55.17 L 174.637 -55.637 L 175.008 -55.637 L 174.992 -54.333 L 175.056 -54.333 Q 175.716 -54.913 176.304 -55.299 Q 176.891 -55.686 177.648 -55.686 Q 178.743 -55.686 179.274 -54.945 Q 179.805 -54.204 179.805 -52.82 Z " fill="black" /></g></g></g><g><g><g><path d="M 155.557 11.458 L 155.557 11.458 L 155.971 11.895 Q 154.798 13.275 153.257 14.16 Q 151.716 15.046 149.531 15.046 Q 147.461 15.046 146.219 14.275 Q 144.977 13.505 144.436 12.217 Q 143.896 10.929 143.896 9.411 Q 143.896 6.996 144.632 5.121 Q 145.368 3.247 146.644 1.97 Q 147.921 0.694 149.531 0.038 Q 151.141 -0.617 152.889 -0.617 Q 154.062 -0.617 154.717 -0.41 Q 155.373 -0.203 155.741 0.015 Q 156.109 0.234 156.385 0.234 Q 156.661 0.234 156.868 0.004 Q 157.075 -0.226 157.351 -0.594 L 158.018 -0.594 L 156.937 4.673 L 156.178 4.673 Q 156.27 2.373 155.327 1.372 Q 154.384 0.372 152.682 0.372 Q 151.348 0.372 150.175 0.981 Q 149.002 1.591 148.093 2.706 Q 147.185 3.822 146.667 5.374 Q 146.15 6.927 146.15 8.836 Q 146.15 11.136 147.242 12.343 Q 148.335 13.551 150.612 13.551 Q 153.257 13.551 155.557 11.458 Z " fill="black" /><path d="M 163.866 13.988 L 163.866 13.988 L 163.866 14.052 Q 164.559 14.165 165.195 14.471 Q 165.831 14.777 166.249 15.332 Q 166.668 15.888 166.668 16.773 Q 166.668 18.142 165.645 18.882 Q 164.623 19.623 162.82 19.623 L 157.861 19.623 L 157.861 19.14 Q 158.521 19.14 158.851 19.027 Q 159.181 18.915 159.302 18.576 Q 159.423 18.238 159.423 17.578 L 159.423 10.993 Q 159.423 10.349 159.302 10.035 Q 159.181 9.721 158.851 9.625 Q 158.521 9.528 157.861 9.528 L 157.861 9.045 L 162.208 9.045 Q 164.366 9.045 165.259 9.705 Q 166.153 10.365 166.153 11.557 Q 166.153 12.636 165.509 13.175 Q 164.865 13.714 163.866 13.988 Z M 160.904 14.471 L 160.904 14.471 L 160.904 18.979 Q 161.484 19.027 162.063 19.027 Q 162.578 19.027 163.094 18.963 Q 163.609 18.898 164.036 18.681 Q 164.462 18.464 164.72 18.021 Q 164.977 17.578 164.977 16.805 Q 164.977 15.888 164.551 15.381 Q 164.124 14.873 163.456 14.672 Q 162.788 14.471 162.031 14.471 Z M 160.904 13.795 L 160.904 13.795 L 161.999 13.795 Q 163.464 13.795 164.011 13.288 Q 164.559 12.78 164.559 11.686 Q 164.559 10.736 163.955 10.204 Q 163.351 9.673 161.87 9.673 Q 161.387 9.673 160.904 9.721 Z " fill="black" /><path d="M 167.859 16.983 L 167.859 16.983 L 168.278 16.983 Q 168.535 18.222 169.035 18.713 Q 169.534 19.204 170.419 19.204 Q 171.031 19.204 171.417 18.955 Q 171.804 18.705 171.804 18.142 Q 171.804 17.755 171.667 17.498 Q 171.53 17.24 171.144 16.974 Q 170.757 16.709 170.001 16.339 Q 168.906 15.775 168.391 15.252 Q 167.875 14.729 167.875 13.843 Q 167.875 12.845 168.592 12.33 Q 169.308 11.814 170.339 11.814 Q 170.95 11.814 171.337 11.951 Q 171.723 12.088 172.029 12.233 L 172.045 12.233 L 172.319 11.895 L 172.641 11.895 L 172.689 14.358 L 172.255 14.358 Q 171.997 13.215 171.53 12.788 Q 171.063 12.362 170.323 12.362 Q 169.775 12.362 169.397 12.619 Q 169.018 12.877 169.018 13.424 Q 169.018 13.891 169.453 14.262 Q 169.888 14.632 170.902 15.147 Q 171.997 15.727 172.577 16.266 Q 173.156 16.805 173.156 17.707 Q 173.156 18.464 172.786 18.923 Q 172.416 19.381 171.796 19.591 Q 171.176 19.8 170.451 19.8 Q 169.759 19.8 169.349 19.655 Q 168.938 19.51 168.616 19.381 L 168.584 19.381 L 168.246 19.752 L 167.908 19.752 Z " fill="black" /><path d="M 181.335 14.68 L 181.335 14.68 L 181.335 17.997 Q 181.335 18.448 181.407 18.705 Q 181.48 18.963 181.737 19.067 Q 181.995 19.172 182.526 19.172 L 182.526 19.623 L 178.807 19.623 L 178.807 19.172 Q 179.387 19.172 179.636 19.067 Q 179.886 18.963 179.942 18.705 Q 179.999 18.448 179.999 17.997 L 179.999 15.083 Q 179.999 14.117 179.781 13.634 Q 179.564 13.151 179.226 12.998 Q 178.888 12.845 178.517 12.845 Q 177.873 12.845 177.407 13.191 Q 176.94 13.537 176.569 13.859 L 176.569 17.997 Q 176.569 18.448 176.634 18.705 Q 176.698 18.963 176.956 19.067 Q 177.213 19.172 177.793 19.172 L 177.793 19.623 L 174.106 19.623 L 174.106 19.172 Q 174.653 19.172 174.887 19.067 Q 175.12 18.963 175.177 18.705 Q 175.233 18.448 175.233 17.997 L 175.233 13.473 Q 175.233 13.038 175.056 12.901 Q 174.879 12.764 174.557 12.764 Q 174.348 12.764 174.235 12.78 Q 174.122 12.797 174.122 12.797 L 174.122 12.33 L 176.167 11.863 L 176.537 11.863 L 176.521 13.167 L 176.585 13.167 Q 177.246 12.587 177.833 12.201 Q 178.421 11.814 179.178 11.814 Q 180.272 11.814 180.804 12.555 Q 181.335 13.296 181.335 14.68 Z " fill="black" /></g></g></g><g><g><g><path d="M 369.917 -59.228 L 369.917 -59.228 L 371.803 -68.29 Q 372.01 -69.187 371.998 -69.705 Q 371.987 -70.222 371.573 -70.429 Q 371.159 -70.636 370.101 -70.636 L 370.239 -71.326 L 376.61 -71.326 L 376.472 -70.636 Q 375.46 -70.636 374.954 -70.429 Q 374.448 -70.222 374.241 -69.705 Q 374.034 -69.187 373.85 -68.29 L 371.964 -59.136 Q 371.895 -58.768 371.849 -58.469 Q 371.803 -58.17 371.803 -57.917 Q 371.803 -57.273 372.182 -57.089 Q 372.562 -56.905 373.643 -56.905 L 373.505 -56.215 L 367.226 -56.215 L 367.364 -56.905 Q 368.307 -56.905 368.778 -57.066 Q 369.25 -57.227 369.48 -57.722 Q 369.71 -58.216 369.917 -59.228 Z " fill="black" /><path d="M 387.67 -56.843 L 387.67 -56.843 Q 387.67 -55.443 387.228 -54.316 Q 386.785 -53.188 385.964 -52.44 Q 385.143 -51.691 384 -51.418 L 384 -51.385 Q 384.579 -50.58 385.151 -50.081 Q 385.722 -49.582 386.431 -49.357 Q 387.139 -49.131 388.105 -49.131 L 388.105 -48.6 L 387.3 -48.6 Q 385.964 -48.6 385.062 -48.785 Q 384.161 -48.97 383.565 -49.397 Q 382.969 -49.824 382.534 -50.548 L 382.148 -51.208 Q 379.958 -51.353 378.687 -52.786 Q 377.415 -54.219 377.415 -56.682 Q 377.415 -58.324 378.034 -59.556 Q 378.654 -60.788 379.805 -61.472 Q 380.957 -62.156 382.551 -62.156 Q 384.161 -62.156 385.304 -61.488 Q 386.447 -60.82 387.059 -59.62 Q 387.67 -58.421 387.67 -56.843 Z M 385.98 -56.779 L 385.98 -56.779 Q 385.98 -58.228 385.545 -59.282 Q 385.11 -60.337 384.33 -60.908 Q 383.549 -61.48 382.502 -61.48 Q 380.941 -61.48 380.023 -60.232 Q 379.105 -58.984 379.105 -56.779 Q 379.105 -54.509 379.966 -53.188 Q 380.828 -51.868 382.567 -51.868 Q 384.289 -51.868 385.135 -53.108 Q 385.98 -54.348 385.98 -56.779 Z " fill="black" /></g></g></g><g><g><g><path d="M 378.415 12.45 L 378.415 12.45 L 378.829 12.887 Q 377.656 14.267 376.115 15.152 Q 374.574 16.038 372.389 16.038 Q 370.319 16.038 369.077 15.267 Q 367.835 14.497 367.295 13.209 Q 366.754 11.921 366.754 10.403 Q 366.754 7.988 367.49 6.113 Q 368.226 4.239 369.503 2.962 Q 370.779 1.686 372.389 1.03 Q 373.999 0.375 375.747 0.375 Q 376.92 0.375 377.576 0.582 Q 378.231 0.789 378.599 1.007 Q 378.967 1.226 379.243 1.226 Q 379.519 1.226 379.726 0.996 Q 379.933 0.766 380.209 0.398 L 380.876 0.398 L 379.795 5.665 L 379.036 5.665 Q 379.128 3.365 378.185 2.364 Q 377.242 1.364 375.54 1.364 Q 374.206 1.364 373.033 1.973 Q 371.86 2.583 370.952 3.698 Q 370.043 4.814 369.526 6.366 Q 369.008 7.919 369.008 9.828 Q 369.008 12.128 370.101 13.335 Q 371.193 14.543 373.47 14.543 Q 376.115 14.543 378.415 12.45 Z " fill="black" /><path d="M 391.201 15.157 L 391.201 15.157 Q 391.201 16.558 390.758 17.685 Q 390.315 18.812 389.494 19.56 Q 388.673 20.309 387.53 20.583 L 387.53 20.615 Q 388.11 21.42 388.681 21.919 Q 389.253 22.418 389.961 22.643 Q 390.67 22.869 391.636 22.869 L 391.636 23.4 L 390.831 23.4 Q 389.494 23.4 388.593 23.215 Q 387.691 23.03 387.095 22.603 Q 386.5 22.176 386.065 21.452 L 385.679 20.792 Q 383.489 20.647 382.217 19.214 Q 380.945 17.781 380.945 15.318 Q 380.945 13.676 381.565 12.444 Q 382.185 11.212 383.336 10.528 Q 384.487 9.844 386.081 9.844 Q 387.691 9.844 388.834 10.512 Q 389.977 11.18 390.589 12.38 Q 391.201 13.579 391.201 15.157 Z M 389.51 15.221 L 389.51 15.221 Q 389.51 13.772 389.076 12.718 Q 388.641 11.663 387.86 11.092 Q 387.079 10.52 386.033 10.52 Q 384.471 10.52 383.553 11.768 Q 382.636 13.016 382.636 15.221 Q 382.636 17.491 383.497 18.812 Q 384.358 20.132 386.097 20.132 Q 387.82 20.132 388.665 18.892 Q 389.51 17.652 389.51 15.221 Z " fill="black" /></g></g></g><g><g><g><path d="M 489.077 74.047 L 489.077 74.047 L 490.963 64.985 Q 491.17 64.088 491.159 63.571 Q 491.147 63.053 490.733 62.846 Q 490.319 62.639 489.261 62.639 L 489.399 61.949 L 495.77 61.949 L 495.632 62.639 Q 494.62 62.639 494.114 62.846 Q 493.608 63.053 493.401 63.571 Q 493.194 64.088 493.01 64.985 L 491.124 74.139 Q 491.055 74.507 491.009 74.806 Q 490.963 75.105 490.963 75.358 Q 490.963 76.002 491.343 76.186 Q 491.722 76.37 492.803 76.37 L 492.665 77.06 L 486.386 77.06 L 486.524 76.37 Q 487.467 76.37 487.939 76.209 Q 488.41 76.048 488.64 75.553 Q 488.87 75.059 489.077 74.047 Z " fill="black" /><path d="M 504.577 73.953 L 504.577 73.953 Q 504.577 74.854 504.167 75.418 Q 503.756 75.981 503.136 76.295 Q 502.516 76.609 501.856 76.77 L 501.856 76.835 Q 502.13 76.996 502.476 77.39 Q 502.822 77.784 503.37 78.549 Q 503.917 79.314 504.803 80.586 Q 505.189 81.117 505.551 81.262 Q 505.913 81.407 506.461 81.407 L 506.461 81.89 L 503.804 81.89 Q 503.144 80.892 502.701 80.224 Q 502.259 79.555 501.953 79.097 Q 501.647 78.638 501.405 78.284 Q 501.164 77.929 500.922 77.575 Q 500.681 77.205 500.48 77.124 Q 500.278 77.044 499.844 77.044 L 499.393 77.044 L 499.393 79.894 Q 499.393 80.554 499.506 80.884 Q 499.618 81.214 499.956 81.31 Q 500.294 81.407 500.987 81.407 L 500.987 81.89 L 496.463 81.89 L 496.463 81.407 Q 497.075 81.407 497.38 81.31 Q 497.686 81.214 497.791 80.892 Q 497.896 80.57 497.896 79.894 L 497.896 72.987 Q 497.896 72.536 497.807 72.278 Q 497.719 72.021 497.413 71.908 Q 497.107 71.795 496.463 71.795 L 496.463 71.312 L 500.423 71.312 Q 501.631 71.312 502.573 71.546 Q 503.514 71.779 504.046 72.351 Q 504.577 72.922 504.577 73.953 Z M 499.393 71.989 L 499.393 71.989 L 499.393 76.416 L 500.005 76.432 Q 501.341 76.368 502.146 75.828 Q 502.951 75.289 502.951 74.017 Q 502.951 73.051 502.355 72.496 Q 501.76 71.94 500.455 71.94 Q 499.908 71.94 499.393 71.989 Z " fill="black" /><path d="M 511.339 80.892 L 511.339 80.892 L 511.275 80.892 Q 510.711 81.391 510.196 81.697 Q 509.681 82.003 508.908 82.003 Q 507.974 82.003 507.483 81.487 Q 506.992 80.972 506.992 80.2 Q 506.992 79.555 507.29 79.113 Q 507.588 78.67 508.079 78.364 Q 508.57 78.058 509.141 77.849 Q 509.713 77.64 510.26 77.495 Q 510.808 77.35 511.226 77.221 L 511.226 76.513 Q 511.226 75.466 510.864 75.023 Q 510.502 74.581 509.777 74.581 Q 509.085 74.581 508.892 74.87 Q 508.699 75.16 508.699 75.885 Q 508.699 76.625 507.99 76.625 Q 507.749 76.625 507.531 76.44 Q 507.314 76.255 507.314 75.853 Q 507.314 75.402 507.66 74.999 Q 508.006 74.597 508.642 74.339 Q 509.278 74.082 510.148 74.082 Q 511.468 74.082 512.015 74.693 Q 512.563 75.305 512.563 76.561 L 512.563 80.216 Q 512.563 80.715 512.675 80.86 Q 512.788 81.005 513.046 81.005 Q 513.271 81.005 513.456 80.892 Q 513.641 80.779 513.802 80.602 L 514.044 80.86 Q 513.641 81.439 513.279 81.705 Q 512.917 81.971 512.305 81.971 Q 511.774 81.971 511.597 81.697 Q 511.42 81.423 511.339 80.892 Z M 511.226 80.409 L 511.226 80.409 L 511.226 77.752 Q 510.502 77.929 509.858 78.171 Q 509.214 78.412 508.811 78.799 Q 508.409 79.185 508.409 79.813 Q 508.409 80.409 508.731 80.763 Q 509.053 81.117 509.568 81.117 Q 510.373 81.117 511.226 80.409 Z " fill="black" /><path d="M 516.733 70.523 L 516.733 70.523 L 516.733 75.45 L 516.781 75.45 Q 517.199 74.935 517.827 74.508 Q 518.455 74.082 519.26 74.082 Q 520.065 74.082 520.669 74.54 Q 521.273 74.999 521.611 75.804 Q 521.949 76.609 521.949 77.656 Q 521.949 79.089 521.45 80.071 Q 520.951 81.053 520.081 81.552 Q 519.212 82.051 518.085 82.051 Q 517.055 82.051 516.37 81.809 Q 515.686 81.568 515.396 81.407 L 515.396 72.359 Q 515.396 71.811 515.276 71.658 Q 515.155 71.505 514.688 71.505 Q 514.495 71.505 514.366 71.522 Q 514.237 71.538 514.237 71.538 L 514.237 71.087 L 516.314 70.523 Z M 516.733 76.158 L 516.733 76.158 L 516.733 80.634 Q 516.958 80.908 517.344 81.149 Q 517.731 81.391 518.375 81.391 Q 519.148 81.391 519.606 80.956 Q 520.065 80.522 520.275 79.789 Q 520.484 79.056 520.484 78.171 Q 520.484 77.398 520.323 76.714 Q 520.162 76.03 519.743 75.603 Q 519.325 75.176 518.552 75.176 Q 517.94 75.176 517.449 75.522 Q 516.958 75.869 516.733 76.158 Z " fill="black" /><path d="M 526.65 81.439 L 526.65 81.439 L 526.65 81.89 L 523.028 81.89 L 523.028 81.439 Q 523.575 81.439 523.809 81.335 Q 524.042 81.23 524.098 80.972 Q 524.155 80.715 524.155 80.264 L 524.155 75.772 Q 524.155 75.257 523.978 75.136 Q 523.801 75.015 523.446 75.015 Q 523.285 75.015 523.165 75.031 Q 523.044 75.047 523.044 75.047 L 523.044 74.581 L 525.072 74.13 L 525.491 74.13 L 525.491 80.264 Q 525.491 80.731 525.555 80.988 Q 525.62 81.246 525.869 81.343 Q 526.119 81.439 526.65 81.439 Z M 524.847 71.055 L 524.847 71.055 Q 525.266 71.055 525.515 71.32 Q 525.765 71.586 525.765 71.956 Q 525.765 72.327 525.515 72.6 Q 525.266 72.874 524.847 72.874 Q 524.445 72.874 524.187 72.6 Q 523.929 72.327 523.929 71.956 Q 523.929 71.586 524.179 71.32 Q 524.428 71.055 524.847 71.055 Z " fill="black" /></g></g></g><g><g><g><path d="M 155.108 86.808 L 155.108 86.808 L 153.728 91.293 L 142.366 91.293 L 142.504 90.603 Q 143.401 90.603 143.873 90.442 Q 144.344 90.281 144.597 89.821 Q 144.85 89.361 145.034 88.441 L 147.012 78.85 Q 147.173 78.091 147.127 77.654 Q 147.081 77.217 146.656 77.044 Q 146.23 76.872 145.241 76.872 L 145.379 76.182 L 151.911 76.182 L 151.796 76.872 Q 150.554 76.872 149.933 77.251 Q 149.312 77.631 149.059 78.873 L 146.966 89.177 Q 146.805 89.936 147.127 90.177 Q 147.449 90.419 148.461 90.419 L 149.542 90.419 Q 150.646 90.419 151.336 90.223 Q 152.026 90.028 152.509 89.614 Q 152.992 89.2 153.418 88.498 Q 153.843 87.797 154.372 86.808 Z " fill="black" /><path d="M 162.337 90.488 L 162.337 90.488 L 162.337 90.552 Q 163.029 90.665 163.665 90.971 Q 164.301 91.277 164.72 91.832 Q 165.138 92.388 165.138 93.273 Q 165.138 94.642 164.116 95.382 Q 163.094 96.123 161.29 96.123 L 156.332 96.123 L 156.332 95.64 Q 156.992 95.64 157.322 95.527 Q 157.652 95.415 157.773 95.076 Q 157.893 94.738 157.893 94.078 L 157.893 87.493 Q 157.893 86.849 157.773 86.535 Q 157.652 86.221 157.322 86.125 Q 156.992 86.028 156.332 86.028 L 156.332 85.545 L 160.679 85.545 Q 162.836 85.545 163.73 86.205 Q 164.623 86.865 164.623 88.057 Q 164.623 89.136 163.979 89.675 Q 163.335 90.214 162.337 90.488 Z M 159.375 90.971 L 159.375 90.971 L 159.375 95.479 Q 159.954 95.527 160.534 95.527 Q 161.049 95.527 161.564 95.463 Q 162.079 95.398 162.506 95.181 Q 162.933 94.964 163.19 94.521 Q 163.448 94.078 163.448 93.305 Q 163.448 92.388 163.021 91.881 Q 162.595 91.373 161.926 91.172 Q 161.258 90.971 160.502 90.971 Z M 159.375 90.295 L 159.375 90.295 L 160.469 90.295 Q 161.934 90.295 162.482 89.788 Q 163.029 89.28 163.029 88.186 Q 163.029 87.236 162.425 86.704 Q 161.822 86.173 160.341 86.173 Q 159.858 86.173 159.375 86.221 Z " fill="black" /><path d="M 166.33 93.483 L 166.33 93.483 L 166.748 93.483 Q 167.006 94.722 167.505 95.213 Q 168.004 95.704 168.89 95.704 Q 169.501 95.704 169.888 95.455 Q 170.274 95.205 170.274 94.642 Q 170.274 94.255 170.137 93.998 Q 170.001 93.74 169.614 93.474 Q 169.228 93.209 168.471 92.839 Q 167.376 92.275 166.861 91.752 Q 166.346 91.229 166.346 90.343 Q 166.346 89.345 167.062 88.83 Q 167.779 88.314 168.809 88.314 Q 169.421 88.314 169.807 88.451 Q 170.194 88.588 170.5 88.733 L 170.516 88.733 L 170.789 88.395 L 171.111 88.395 L 171.16 90.858 L 170.725 90.858 Q 170.467 89.715 170.001 89.288 Q 169.534 88.862 168.793 88.862 Q 168.246 88.862 167.867 89.119 Q 167.489 89.377 167.489 89.924 Q 167.489 90.391 167.924 90.762 Q 168.358 91.132 169.373 91.647 Q 170.467 92.227 171.047 92.766 Q 171.627 93.305 171.627 94.207 Q 171.627 94.964 171.256 95.423 Q 170.886 95.881 170.266 96.091 Q 169.646 96.3 168.922 96.3 Q 168.23 96.3 167.819 96.155 Q 167.408 96.01 167.086 95.881 L 167.054 95.881 L 166.716 96.252 L 166.378 96.252 Z " fill="black" /><path d="M 179.805 91.18 L 179.805 91.18 L 179.805 94.497 Q 179.805 94.948 179.878 95.205 Q 179.95 95.463 180.208 95.567 Q 180.466 95.672 180.997 95.672 L 180.997 96.123 L 177.278 96.123 L 177.278 95.672 Q 177.857 95.672 178.107 95.567 Q 178.356 95.463 178.413 95.205 Q 178.469 94.948 178.469 94.497 L 178.469 91.583 Q 178.469 90.617 178.252 90.134 Q 178.034 89.651 177.696 89.498 Q 177.358 89.345 176.988 89.345 Q 176.344 89.345 175.877 89.691 Q 175.41 90.037 175.04 90.359 L 175.04 94.497 Q 175.04 94.948 175.104 95.205 Q 175.169 95.463 175.426 95.567 Q 175.684 95.672 176.263 95.672 L 176.263 96.123 L 172.577 96.123 L 172.577 95.672 Q 173.124 95.672 173.357 95.567 Q 173.591 95.463 173.647 95.205 Q 173.704 94.948 173.704 94.497 L 173.704 89.973 Q 173.704 89.538 173.526 89.401 Q 173.349 89.264 173.027 89.264 Q 172.818 89.264 172.705 89.28 Q 172.593 89.297 172.593 89.297 L 172.593 88.83 L 174.637 88.363 L 175.008 88.363 L 174.992 89.667 L 175.056 89.667 Q 175.716 89.087 176.304 88.701 Q 176.891 88.314 177.648 88.314 Q 178.743 88.314 179.274 89.055 Q 179.805 89.796 179.805 91.18 Z " fill="black" /></g></g></g><g><g><g><path d="M 155.557 155.458 L 155.557 155.458 L 155.971 155.895 Q 154.798 157.275 153.257 158.16 Q 151.716 159.046 149.531 159.046 Q 147.461 159.046 146.219 158.275 Q 144.977 157.505 144.436 156.217 Q 143.896 154.929 143.896 153.411 Q 143.896 150.996 144.632 149.121 Q 145.368 147.247 146.644 145.97 Q 147.921 144.694 149.531 144.038 Q 151.141 143.383 152.889 143.383 Q 154.062 143.383 154.717 143.59 Q 155.373 143.797 155.741 144.015 Q 156.109 144.234 156.385 144.234 Q 156.661 144.234 156.868 144.004 Q 157.075 143.774 157.351 143.406 L 158.018 143.406 L 156.937 148.673 L 156.178 148.673 Q 156.27 146.373 155.327 145.372 Q 154.384 144.372 152.682 144.372 Q 151.348 144.372 150.175 144.981 Q 149.002 145.591 148.093 146.706 Q 147.185 147.822 146.667 149.374 Q 146.15 150.927 146.15 152.836 Q 146.15 155.136 147.242 156.343 Q 148.335 157.551 150.612 157.551 Q 153.257 157.551 155.557 155.458 Z " fill="black" /><path d="M 163.866 157.988 L 163.866 157.988 L 163.866 158.052 Q 164.559 158.165 165.195 158.471 Q 165.831 158.777 166.249 159.332 Q 166.668 159.888 166.668 160.773 Q 166.668 162.142 165.645 162.882 Q 164.623 163.623 162.82 163.623 L 157.861 163.623 L 157.861 163.14 Q 158.521 163.14 158.851 163.027 Q 159.181 162.914 159.302 162.576 Q 159.423 162.238 159.423 161.578 L 159.423 154.993 Q 159.423 154.349 159.302 154.035 Q 159.181 153.721 158.851 153.625 Q 158.521 153.528 157.861 153.528 L 157.861 153.045 L 162.208 153.045 Q 164.366 153.045 165.259 153.705 Q 166.153 154.365 166.153 155.557 Q 166.153 156.635 165.509 157.175 Q 164.865 157.714 163.866 157.988 Z M 160.904 158.471 L 160.904 158.471 L 160.904 162.979 Q 161.484 163.027 162.063 163.027 Q 162.578 163.027 163.094 162.963 Q 163.609 162.898 164.036 162.681 Q 164.462 162.464 164.72 162.021 Q 164.977 161.578 164.977 160.805 Q 164.977 159.888 164.551 159.381 Q 164.124 158.873 163.456 158.672 Q 162.788 158.471 162.031 158.471 Z M 160.904 157.795 L 160.904 157.795 L 161.999 157.795 Q 163.464 157.795 164.011 157.288 Q 164.559 156.78 164.559 155.686 Q 164.559 154.736 163.955 154.204 Q 163.351 153.673 161.87 153.673 Q 161.387 153.673 160.904 153.721 Z " fill="black" /><path d="M 167.859 160.982 L 167.859 160.982 L 168.278 160.982 Q 168.535 162.222 169.035 162.713 Q 169.534 163.204 170.419 163.204 Q 171.031 163.204 171.417 162.955 Q 171.804 162.705 171.804 162.142 Q 171.804 161.755 171.667 161.498 Q 171.53 161.24 171.144 160.974 Q 170.757 160.709 170.001 160.338 Q 168.906 159.775 168.391 159.252 Q 167.875 158.728 167.875 157.843 Q 167.875 156.845 168.592 156.33 Q 169.308 155.814 170.339 155.814 Q 170.95 155.814 171.337 155.951 Q 171.723 156.088 172.029 156.233 L 172.045 156.233 L 172.319 155.895 L 172.641 155.895 L 172.689 158.358 L 172.255 158.358 Q 171.997 157.215 171.53 156.788 Q 171.063 156.362 170.323 156.362 Q 169.775 156.362 169.397 156.619 Q 169.018 156.877 169.018 157.424 Q 169.018 157.891 169.453 158.262 Q 169.888 158.632 170.902 159.147 Q 171.997 159.727 172.577 160.266 Q 173.156 160.805 173.156 161.707 Q 173.156 162.464 172.786 162.923 Q 172.416 163.381 171.796 163.591 Q 171.176 163.8 170.451 163.8 Q 169.759 163.8 169.349 163.655 Q 168.938 163.51 168.616 163.381 L 168.584 163.381 L 168.246 163.752 L 167.908 163.752 Z " fill="black" /><path d="M 181.335 158.68 L 181.335 158.68 L 181.335 161.997 Q 181.335 162.448 181.407 162.705 Q 181.48 162.963 181.737 163.067 Q 181.995 163.172 182.526 163.172 L 182.526 163.623 L 178.807 163.623 L 178.807 163.172 Q 179.387 163.172 179.636 163.067 Q 179.886 162.963 179.942 162.705 Q 179.999 162.448 179.999 161.997 L 179.999 159.083 Q 179.999 158.117 179.781 157.634 Q 179.564 157.151 179.226 156.998 Q 178.888 156.845 178.517 156.845 Q 177.873 156.845 177.407 157.191 Q 176.94 157.537 176.569 157.859 L 176.569 161.997 Q 176.569 162.448 176.634 162.705 Q 176.698 162.963 176.956 163.067 Q 177.213 163.172 177.793 163.172 L 177.793 163.623 L 174.106 163.623 L 174.106 163.172 Q 174.653 163.172 174.887 163.067 Q 175.12 162.963 175.177 162.705 Q 175.233 162.448 175.233 161.997 L 175.233 157.473 Q 175.233 157.038 175.056 156.901 Q 174.879 156.764 174.557 156.764 Q 174.348 156.764 174.235 156.78 Q 174.122 156.796 174.122 156.796 L 174.122 156.33 L 176.167 155.863 L 176.537 155.863 L 176.521 157.167 L 176.585 157.167 Q 177.246 156.587 177.833 156.201 Q 178.421 155.814 179.178 155.814 Q 180.272 155.814 180.804 156.555 Q 181.335 157.296 181.335 158.68 Z " fill="black" /></g></g></g><g><g><g><path d="M 369.917 84.772 L 369.917 84.772 L 371.803 75.71 Q 372.01 74.813 371.998 74.295 Q 371.987 73.778 371.573 73.571 Q 371.159 73.364 370.101 73.364 L 370.239 72.674 L 376.61 72.674 L 376.472 73.364 Q 375.46 73.364 374.954 73.571 Q 374.448 73.778 374.241 74.295 Q 374.034 74.813 373.85 75.71 L 371.964 84.864 Q 371.895 85.232 371.849 85.531 Q 371.803 85.83 371.803 86.083 Q 371.803 86.727 372.182 86.911 Q 372.562 87.095 373.643 87.095 L 373.505 87.785 L 367.226 87.785 L 367.364 87.095 Q 368.307 87.095 368.778 86.934 Q 369.25 86.773 369.48 86.278 Q 369.71 85.784 369.917 84.772 Z " fill="black" /><path d="M 387.67 87.157 L 387.67 87.157 Q 387.67 88.557 387.228 89.684 Q 386.785 90.811 385.964 91.56 Q 385.143 92.309 384 92.582 L 384 92.615 Q 384.579 93.42 385.151 93.919 Q 385.722 94.418 386.431 94.643 Q 387.139 94.869 388.105 94.869 L 388.105 95.4 L 387.3 95.4 Q 385.964 95.4 385.062 95.215 Q 384.161 95.03 383.565 94.603 Q 382.969 94.176 382.534 93.452 L 382.148 92.792 Q 379.958 92.647 378.687 91.214 Q 377.415 89.781 377.415 87.318 Q 377.415 85.676 378.034 84.444 Q 378.654 83.212 379.805 82.528 Q 380.957 81.844 382.551 81.844 Q 384.161 81.844 385.304 82.512 Q 386.447 83.18 387.059 84.38 Q 387.67 85.579 387.67 87.157 Z M 385.98 87.221 L 385.98 87.221 Q 385.98 85.772 385.545 84.718 Q 385.11 83.663 384.33 83.092 Q 383.549 82.52 382.502 82.52 Q 380.941 82.52 380.023 83.768 Q 379.105 85.015 379.105 87.221 Q 379.105 89.491 379.966 90.811 Q 380.828 92.132 382.567 92.132 Q 384.289 92.132 385.135 90.892 Q 385.98 89.652 385.98 87.221 Z " fill="black" /></g></g></g><g><g><g><path d="M 378.415 156.45 L 378.415 156.45 L 378.829 156.887 Q 377.656 158.267 376.115 159.152 Q 374.574 160.038 372.389 160.038 Q 370.319 160.038 369.077 159.267 Q 367.835 158.497 367.295 157.209 Q 366.754 155.921 366.754 154.403 Q 366.754 151.988 367.49 150.113 Q 368.226 148.239 369.503 146.962 Q 370.779 145.686 372.389 145.03 Q 373.999 144.375 375.747 144.375 Q 376.92 144.375 377.576 144.582 Q 378.231 144.789 378.599 145.007 Q 378.967 145.226 379.243 145.226 Q 379.519 145.226 379.726 144.996 Q 379.933 144.766 380.209 144.398 L 380.876 144.398 L 379.795 149.665 L 379.036 149.665 Q 379.128 147.365 378.185 146.364 Q 377.242 145.364 375.54 145.364 Q 374.206 145.364 373.033 145.973 Q 371.86 146.583 370.952 147.698 Q 370.043 148.814 369.526 150.366 Q 369.008 151.919 369.008 153.828 Q 369.008 156.128 370.101 157.335 Q 371.193 158.543 373.47 158.543 Q 376.115 158.543 378.415 156.45 Z " fill="black" /><path d="M 391.201 159.157 L 391.201 159.157 Q 391.201 160.558 390.758 161.685 Q 390.315 162.812 389.494 163.56 Q 388.673 164.309 387.53 164.583 L 387.53 164.615 Q 388.11 165.42 388.681 165.919 Q 389.253 166.418 389.961 166.643 Q 390.67 166.869 391.636 166.869 L 391.636 167.4 L 390.831 167.4 Q 389.494 167.4 388.593 167.215 Q 387.691 167.03 387.095 166.603 Q 386.5 166.176 386.065 165.452 L 385.679 164.792 Q 383.489 164.647 382.217 163.214 Q 380.945 161.781 380.945 159.318 Q 380.945 157.676 381.565 156.444 Q 382.185 155.212 383.336 154.528 Q 384.487 153.844 386.081 153.844 Q 387.691 153.844 388.834 154.512 Q 389.977 155.18 390.589 156.38 Q 391.201 157.579 391.201 159.157 Z M 389.51 159.221 L 389.51 159.221 Q 389.51 157.772 389.076 156.718 Q 388.641 155.663 387.86 155.092 Q 387.079 154.52 386.033 154.52 Q 384.471 154.52 383.553 155.768 Q 382.636 157.016 382.636 159.221 Q 382.636 161.491 383.497 162.812 Q 384.358 164.132 386.097 164.132 Q 387.82 164.132 388.665 162.892 Q 389.51 161.652 389.51 159.221 Z " fill="black" /></g></g></g><g><g><g><path d="M 489.077 218.047 L 489.077 218.047 L 490.963 208.985 Q 491.17 208.088 491.159 207.571 Q 491.147 207.053 490.733 206.846 Q 490.319 206.639 489.261 206.639 L 489.399 205.949 L 495.77 205.949 L 495.632 206.639 Q 494.62 206.639 494.114 206.846 Q 493.608 207.053 493.401 207.571 Q 493.194 208.088 493.01 208.985 L 491.124 218.139 Q 491.055 218.507 491.009 218.806 Q 490.963 219.105 490.963 219.358 Q 490.963 220.002 491.343 220.186 Q 491.722 220.37 492.803 220.37 L 492.665 221.06 L 486.386 221.06 L 486.524 220.37 Q 487.467 220.37 487.939 220.209 Q 488.41 220.048 488.64 219.554 Q 488.87 219.059 489.077 218.047 Z " fill="black" /><path d="M 504.577 217.953 L 504.577 217.953 Q 504.577 218.854 504.167 219.418 Q 503.756 219.981 503.136 220.295 Q 502.516 220.609 501.856 220.77 L 501.856 220.835 Q 502.13 220.996 502.476 221.39 Q 502.822 221.785 503.37 222.549 Q 503.917 223.314 504.803 224.586 Q 505.189 225.117 505.551 225.262 Q 505.913 225.407 506.461 225.407 L 506.461 225.89 L 503.804 225.89 Q 503.144 224.892 502.701 224.224 Q 502.259 223.556 501.953 223.097 Q 501.647 222.638 501.405 222.284 Q 501.164 221.929 500.922 221.575 Q 500.681 221.205 500.48 221.124 Q 500.278 221.044 499.844 221.044 L 499.393 221.044 L 499.393 223.894 Q 499.393 224.554 499.506 224.884 Q 499.618 225.214 499.956 225.31 Q 500.294 225.407 500.987 225.407 L 500.987 225.89 L 496.463 225.89 L 496.463 225.407 Q 497.075 225.407 497.38 225.31 Q 497.686 225.214 497.791 224.892 Q 497.896 224.57 497.896 223.894 L 497.896 216.987 Q 497.896 216.536 497.807 216.278 Q 497.719 216.021 497.413 215.908 Q 497.107 215.795 496.463 215.795 L 496.463 215.312 L 500.423 215.312 Q 501.631 215.312 502.573 215.546 Q 503.514 215.779 504.046 216.351 Q 504.577 216.922 504.577 217.953 Z M 499.393 215.989 L 499.393 215.989 L 499.393 220.416 L 500.005 220.432 Q 501.341 220.368 502.146 219.828 Q 502.951 219.289 502.951 218.017 Q 502.951 217.051 502.355 216.496 Q 501.76 215.94 500.455 215.94 Q 499.908 215.94 499.393 215.989 Z " fill="black" /><path d="M 511.339 224.892 L 511.339 224.892 L 511.275 224.892 Q 510.711 225.391 510.196 225.697 Q 509.681 226.003 508.908 226.003 Q 507.974 226.003 507.483 225.488 Q 506.992 224.972 506.992 224.2 Q 506.992 223.556 507.29 223.113 Q 507.588 222.67 508.079 222.364 Q 508.57 222.058 509.141 221.849 Q 509.713 221.64 510.26 221.495 Q 510.808 221.35 511.226 221.221 L 511.226 220.513 Q 511.226 219.466 510.864 219.023 Q 510.502 218.581 509.777 218.581 Q 509.085 218.581 508.892 218.87 Q 508.699 219.16 508.699 219.885 Q 508.699 220.625 507.99 220.625 Q 507.749 220.625 507.531 220.44 Q 507.314 220.255 507.314 219.853 Q 507.314 219.402 507.66 218.999 Q 508.006 218.597 508.642 218.339 Q 509.278 218.082 510.148 218.082 Q 511.468 218.082 512.015 218.693 Q 512.563 219.305 512.563 220.561 L 512.563 224.216 Q 512.563 224.715 512.675 224.86 Q 512.788 225.005 513.046 225.005 Q 513.271 225.005 513.456 224.892 Q 513.641 224.779 513.802 224.602 L 514.044 224.86 Q 513.641 225.439 513.279 225.705 Q 512.917 225.971 512.305 225.971 Q 511.774 225.971 511.597 225.697 Q 511.42 225.423 511.339 224.892 Z M 511.226 224.409 L 511.226 224.409 L 511.226 221.752 Q 510.502 221.929 509.858 222.171 Q 509.214 222.412 508.811 222.799 Q 508.409 223.185 508.409 223.813 Q 508.409 224.409 508.731 224.763 Q 509.053 225.117 509.568 225.117 Q 510.373 225.117 511.226 224.409 Z " fill="black" /><path d="M 516.733 214.523 L 516.733 214.523 L 516.733 219.45 L 516.781 219.45 Q 517.199 218.935 517.827 218.508 Q 518.455 218.082 519.26 218.082 Q 520.065 218.082 520.669 218.54 Q 521.273 218.999 521.611 219.804 Q 521.949 220.609 521.949 221.656 Q 521.949 223.089 521.45 224.071 Q 520.951 225.053 520.081 225.552 Q 519.212 226.051 518.085 226.051 Q 517.055 226.051 516.37 225.81 Q 515.686 225.568 515.396 225.407 L 515.396 216.359 Q 515.396 215.811 515.276 215.658 Q 515.155 215.506 514.688 215.506 Q 514.495 215.506 514.366 215.522 Q 514.237 215.538 514.237 215.538 L 514.237 215.087 L 516.314 214.523 Z M 516.733 220.158 L 516.733 220.158 L 516.733 224.634 Q 516.958 224.908 517.344 225.149 Q 517.731 225.391 518.375 225.391 Q 519.148 225.391 519.606 224.956 Q 520.065 224.522 520.275 223.789 Q 520.484 223.056 520.484 222.171 Q 520.484 221.398 520.323 220.714 Q 520.162 220.03 519.743 219.603 Q 519.325 219.176 518.552 219.176 Q 517.94 219.176 517.449 219.522 Q 516.958 219.869 516.733 220.158 Z " fill="black" /><path d="M 526.65 225.439 L 526.65 225.439 L 526.65 225.89 L 523.028 225.89 L 523.028 225.439 Q 523.575 225.439 523.809 225.335 Q 524.042 225.23 524.098 224.972 Q 524.155 224.715 524.155 224.264 L 524.155 219.772 Q 524.155 219.257 523.978 219.136 Q 523.801 219.015 523.446 219.015 Q 523.285 219.015 523.165 219.031 Q 523.044 219.048 523.044 219.048 L 523.044 218.581 L 525.072 218.13 L 525.491 218.13 L 525.491 224.264 Q 525.491 224.731 525.555 224.988 Q 525.62 225.246 525.869 225.343 Q 526.119 225.439 526.65 225.439 Z M 524.847 215.055 L 524.847 215.055 Q 525.266 215.055 525.515 215.32 Q 525.765 215.586 525.765 215.956 Q 525.765 216.327 525.515 216.6 Q 525.266 216.874 524.847 216.874 Q 524.445 216.874 524.187 216.6 Q 523.929 216.327 523.929 215.956 Q 523.929 215.586 524.179 215.32 Q 524.428 215.055 524.847 215.055 Z " fill="black" /></g></g></g><g><g><g><path d="M 155.108 230.808 L 155.108 230.808 L 153.728 235.293 L 142.366 235.293 L 142.504 234.603 Q 143.401 234.603 143.873 234.442 Q 144.344 234.281 144.597 233.821 Q 144.85 233.361 145.034 232.441 L 147.012 222.85 Q 147.173 222.091 147.127 221.654 Q 147.081 221.217 146.656 221.044 Q 146.23 220.872 145.241 220.872 L 145.379 220.182 L 151.911 220.182 L 151.796 220.872 Q 150.554 220.872 149.933 221.251 Q 149.312 221.631 149.059 222.873 L 146.966 233.177 Q 146.805 233.936 147.127 234.177 Q 147.449 234.419 148.461 234.419 L 149.542 234.419 Q 150.646 234.419 151.336 234.223 Q 152.026 234.028 152.509 233.614 Q 152.992 233.2 153.418 232.498 Q 153.843 231.797 154.372 230.808 Z " fill="black" /><path d="M 162.337 234.488 L 162.337 234.488 L 162.337 234.552 Q 163.029 234.665 163.665 234.971 Q 164.301 235.277 164.72 235.832 Q 165.138 236.388 165.138 237.273 Q 165.138 238.642 164.116 239.382 Q 163.094 240.123 161.29 240.123 L 156.332 240.123 L 156.332 239.64 Q 156.992 239.64 157.322 239.527 Q 157.652 239.415 157.773 239.076 Q 157.893 238.738 157.893 238.078 L 157.893 231.493 Q 157.893 230.849 157.773 230.535 Q 157.652 230.221 157.322 230.125 Q 156.992 230.028 156.332 230.028 L 156.332 229.545 L 160.679 229.545 Q 162.836 229.545 163.73 230.205 Q 164.623 230.865 164.623 232.057 Q 164.623 233.136 163.979 233.675 Q 163.335 234.214 162.337 234.488 Z M 159.375 234.971 L 159.375 234.971 L 159.375 239.479 Q 159.954 239.527 160.534 239.527 Q 161.049 239.527 161.564 239.463 Q 162.079 239.398 162.506 239.181 Q 162.933 238.964 163.19 238.521 Q 163.448 238.078 163.448 237.305 Q 163.448 236.388 163.021 235.881 Q 162.595 235.373 161.926 235.172 Q 161.258 234.971 160.502 234.971 Z M 159.375 234.295 L 159.375 234.295 L 160.469 234.295 Q 161.934 234.295 162.482 233.788 Q 163.029 233.28 163.029 232.186 Q 163.029 231.236 162.425 230.704 Q 161.822 230.173 160.341 230.173 Q 159.858 230.173 159.375 230.221 Z " fill="black" /><path d="M 166.33 237.483 L 166.33 237.483 L 166.748 237.483 Q 167.006 238.722 167.505 239.213 Q 168.004 239.704 168.89 239.704 Q 169.501 239.704 169.888 239.455 Q 170.274 239.205 170.274 238.642 Q 170.274 238.255 170.137 237.998 Q 170.001 237.74 169.614 237.474 Q 169.228 237.209 168.471 236.839 Q 167.376 236.275 166.861 235.752 Q 166.346 235.229 166.346 234.343 Q 166.346 233.345 167.062 232.83 Q 167.779 232.314 168.809 232.314 Q 169.421 232.314 169.807 232.451 Q 170.194 232.588 170.5 232.733 L 170.516 232.733 L 170.789 232.395 L 171.111 232.395 L 171.16 234.858 L 170.725 234.858 Q 170.467 233.715 170.001 233.288 Q 169.534 232.862 168.793 232.862 Q 168.246 232.862 167.867 233.119 Q 167.489 233.377 167.489 233.924 Q 167.489 234.391 167.924 234.762 Q 168.358 235.132 169.373 235.647 Q 170.467 236.227 171.047 236.766 Q 171.627 237.305 171.627 238.207 Q 171.627 238.964 171.256 239.423 Q 170.886 239.881 170.266 240.091 Q 169.646 240.3 168.922 240.3 Q 168.23 240.3 167.819 240.155 Q 167.408 240.01 167.086 239.881 L 167.054 239.881 L 166.716 240.252 L 166.378 240.252 Z " fill="black" /><path d="M 179.805 235.18 L 179.805 235.18 L 179.805 238.497 Q 179.805 238.948 179.878 239.205 Q 179.95 239.463 180.208 239.567 Q 180.466 239.672 180.997 239.672 L 180.997 240.123 L 177.278 240.123 L 177.278 239.672 Q 177.857 239.672 178.107 239.567 Q 178.356 239.463 178.413 239.205 Q 178.469 238.948 178.469 238.497 L 178.469 235.583 Q 178.469 234.617 178.252 234.134 Q 178.034 233.651 177.696 233.498 Q 177.358 233.345 176.988 233.345 Q 176.344 233.345 175.877 233.691 Q 175.41 234.037 175.04 234.359 L 175.04 238.497 Q 175.04 238.948 175.104 239.205 Q 175.169 239.463 175.426 239.567 Q 175.684 239.672 176.263 239.672 L 176.263 240.123 L 172.577 240.123 L 172.577 239.672 Q 173.124 239.672 173.357 239.567 Q 173.591 239.463 173.647 239.205 Q 173.704 238.948 173.704 238.497 L 173.704 233.973 Q 173.704 233.538 173.526 233.401 Q 173.349 233.264 173.027 233.264 Q 172.818 233.264 172.705 233.28 Q 172.593 233.297 172.593 233.297 L 172.593 232.83 L 174.637 232.363 L 175.008 232.363 L 174.992 233.667 L 175.056 233.667 Q 175.716 233.087 176.304 232.701 Q 176.891 232.314 177.648 232.314 Q 178.743 232.314 179.274 233.055 Q 179.805 233.796 179.805 235.18 Z " fill="black" /></g></g></g><g><g><g><path d="M 155.557 299.458 L 155.557 299.458 L 155.971 299.895 Q 154.798 301.275 153.257 302.16 Q 151.716 303.046 149.531 303.046 Q 147.461 303.046 146.219 302.275 Q 144.977 301.505 144.436 300.217 Q 143.896 298.929 143.896 297.411 Q 143.896 294.996 144.632 293.121 Q 145.368 291.247 146.644 289.97 Q 147.921 288.694 149.531 288.038 Q 151.141 287.383 152.889 287.383 Q 154.062 287.383 154.717 287.59 Q 155.373 287.797 155.741 288.015 Q 156.109 288.234 156.385 288.234 Q 156.661 288.234 156.868 288.004 Q 157.075 287.774 157.351 287.406 L 158.018 287.406 L 156.937 292.673 L 156.178 292.673 Q 156.27 290.373 155.327 289.372 Q 154.384 288.372 152.682 288.372 Q 151.348 288.372 150.175 288.981 Q 149.002 289.591 148.093 290.706 Q 147.185 291.822 146.667 293.374 Q 146.15 294.927 146.15 296.836 Q 146.15 299.136 147.242 300.343 Q 148.335 301.551 150.612 301.551 Q 153.257 301.551 155.557 299.458 Z " fill="black" /><path d="M 163.866 301.988 L 163.866 301.988 L 163.866 302.052 Q 164.559 302.165 165.195 302.471 Q 165.831 302.777 166.249 303.332 Q 166.668 303.888 166.668 304.773 Q 166.668 306.142 165.645 306.882 Q 164.623 307.623 162.82 307.623 L 157.861 307.623 L 157.861 307.14 Q 158.521 307.14 158.851 307.027 Q 159.181 306.915 159.302 306.576 Q 159.423 306.238 159.423 305.578 L 159.423 298.993 Q 159.423 298.349 159.302 298.035 Q 159.181 297.721 158.851 297.625 Q 158.521 297.528 157.861 297.528 L 157.861 297.045 L 162.208 297.045 Q 164.366 297.045 165.259 297.705 Q 166.153 298.365 166.153 299.557 Q 166.153 300.636 165.509 301.175 Q 164.865 301.714 163.866 301.988 Z M 160.904 302.471 L 160.904 302.471 L 160.904 306.979 Q 161.484 307.027 162.063 307.027 Q 162.578 307.027 163.094 306.963 Q 163.609 306.898 164.036 306.681 Q 164.462 306.464 164.72 306.021 Q 164.977 305.578 164.977 304.805 Q 164.977 303.888 164.551 303.381 Q 164.124 302.873 163.456 302.672 Q 162.788 302.471 162.031 302.471 Z M 160.904 301.795 L 160.904 301.795 L 161.999 301.795 Q 163.464 301.795 164.011 301.288 Q 164.559 300.78 164.559 299.686 Q 164.559 298.736 163.955 298.204 Q 163.351 297.673 161.87 297.673 Q 161.387 297.673 160.904 297.721 Z " fill="black" /><path d="M 167.859 304.983 L 167.859 304.983 L 168.278 304.983 Q 168.535 306.222 169.035 306.713 Q 169.534 307.204 170.419 307.204 Q 171.031 307.204 171.417 306.955 Q 171.804 306.705 171.804 306.142 Q 171.804 305.755 171.667 305.498 Q 171.53 305.24 171.144 304.974 Q 170.757 304.709 170.001 304.339 Q 168.906 303.775 168.391 303.252 Q 167.875 302.728 167.875 301.843 Q 167.875 300.845 168.592 300.33 Q 169.308 299.814 170.339 299.814 Q 170.95 299.814 171.337 299.951 Q 171.723 300.088 172.029 300.233 L 172.045 300.233 L 172.319 299.895 L 172.641 299.895 L 172.689 302.358 L 172.255 302.358 Q 171.997 301.215 171.53 300.788 Q 171.063 300.362 170.323 300.362 Q 169.775 300.362 169.397 300.619 Q 169.018 300.877 169.018 301.424 Q 169.018 301.891 169.453 302.262 Q 169.888 302.632 170.902 303.147 Q 171.997 303.727 172.577 304.266 Q 173.156 304.805 173.156 305.707 Q 173.156 306.464 172.786 306.923 Q 172.416 307.381 171.796 307.591 Q 171.176 307.8 170.451 307.8 Q 169.759 307.8 169.349 307.655 Q 168.938 307.51 168.616 307.381 L 168.584 307.381 L 168.246 307.752 L 167.908 307.752 Z " fill="black" /><path d="M 181.335 302.68 L 181.335 302.68 L 181.335 305.997 Q 181.335 306.448 181.407 306.705 Q 181.48 306.963 181.737 307.067 Q 181.995 307.172 182.526 307.172 L 182.526 307.623 L 178.807 307.623 L 178.807 307.172 Q 179.387 307.172 179.636 307.067 Q 179.886 306.963 179.942 306.705 Q 179.999 306.448 179.999 305.997 L 179.999 303.083 Q 179.999 302.117 179.781 301.634 Q 179.564 301.151 179.226 300.998 Q 178.888 300.845 178.517 300.845 Q 177.873 300.845 177.407 301.191 Q 176.94 301.537 176.569 301.859 L 176.569 305.997 Q 176.569 306.448 176.634 306.705 Q 176.698 306.963 176.956 307.067 Q 177.213 307.172 177.793 307.172 L 177.793 307.623 L 174.106 307.623 L 174.106 307.172 Q 174.653 307.172 174.887 307.067 Q 175.12 306.963 175.177 306.705 Q 175.233 306.448 175.233 305.997 L 175.233 301.473 Q 175.233 301.038 175.056 300.901 Q 174.879 300.764 174.557 300.764 Q 174.348 300.764 174.235 300.78 Q 174.122 300.797 174.122 300.797 L 174.122 300.33 L 176.167 299.863 L 176.537 299.863 L 176.521 301.167 L 176.585 301.167 Q 177.246 300.587 177.833 300.201 Q 178.421 299.814 179.178 299.814 Q 180.272 299.814 180.804 300.555 Q 181.335 301.296 181.335 302.68 Z " fill="black" /></g></g></g><g><g><g><path d="M 369.917 228.772 L 369.917 228.772 L 371.803 219.71 Q 372.01 218.813 371.998 218.295 Q 371.987 217.778 371.573 217.571 Q 371.159 217.364 370.101 217.364 L 370.239 216.674 L 376.61 216.674 L 376.472 217.364 Q 375.46 217.364 374.954 217.571 Q 374.448 217.778 374.241 218.295 Q 374.034 218.813 373.85 219.71 L 371.964 228.864 Q 371.895 229.232 371.849 229.531 Q 371.803 229.83 371.803 230.083 Q 371.803 230.727 372.182 230.911 Q 372.562 231.095 373.643 231.095 L 373.505 231.785 L 367.226 231.785 L 367.364 231.095 Q 368.307 231.095 368.778 230.934 Q 369.25 230.773 369.48 230.278 Q 369.71 229.784 369.917 228.772 Z " fill="black" /><path d="M 387.67 231.157 L 387.67 231.157 Q 387.67 232.558 387.228 233.685 Q 386.785 234.812 385.964 235.56 Q 385.143 236.309 384 236.583 L 384 236.615 Q 384.579 237.42 385.151 237.919 Q 385.722 238.418 386.431 238.643 Q 387.139 238.869 388.105 238.869 L 388.105 239.4 L 387.3 239.4 Q 385.964 239.4 385.062 239.215 Q 384.161 239.03 383.565 238.603 Q 382.969 238.176 382.534 237.452 L 382.148 236.792 Q 379.958 236.647 378.687 235.214 Q 377.415 233.781 377.415 231.318 Q 377.415 229.676 378.034 228.444 Q 378.654 227.212 379.805 226.528 Q 380.957 225.844 382.551 225.844 Q 384.161 225.844 385.304 226.512 Q 386.447 227.18 387.059 228.38 Q 387.67 229.579 387.67 231.157 Z M 385.98 231.221 L 385.98 231.221 Q 385.98 229.772 385.545 228.718 Q 385.11 227.663 384.33 227.092 Q 383.549 226.52 382.502 226.52 Q 380.941 226.52 380.023 227.768 Q 379.105 229.016 379.105 231.221 Q 379.105 233.491 379.966 234.812 Q 380.828 236.132 382.567 236.132 Q 384.289 236.132 385.135 234.892 Q 385.98 233.652 385.98 231.221 Z " fill="black" /></g></g></g><g><g><g><path d="M 378.415 300.45 L 378.415 300.45 L 378.829 300.887 Q 377.656 302.267 376.115 303.152 Q 374.574 304.038 372.389 304.038 Q 370.319 304.038 369.077 303.267 Q 367.835 302.497 367.295 301.209 Q 366.754 299.921 366.754 298.403 Q 366.754 295.988 367.49 294.113 Q 368.226 292.239 369.503 290.962 Q 370.779 289.686 372.389 289.03 Q 373.999 288.375 375.747 288.375 Q 376.92 288.375 377.576 288.582 Q 378.231 288.789 378.599 289.007 Q 378.967 289.226 379.243 289.226 Q 379.519 289.226 379.726 288.996 Q 379.933 288.766 380.209 288.398 L 380.876 288.398 L 379.795 293.665 L 379.036 293.665 Q 379.128 291.365 378.185 290.364 Q 377.242 289.364 375.54 289.364 Q 374.206 289.364 373.033 289.973 Q 371.86 290.583 370.952 291.698 Q 370.043 292.814 369.526 294.366 Q 369.008 295.919 369.008 297.828 Q 369.008 300.128 370.101 301.335 Q 371.193 302.543 373.47 302.543 Q 376.115 302.543 378.415 300.45 Z " fill="black" /><path d="M 391.201 303.157 L 391.201 303.157 Q 391.201 304.558 390.758 305.685 Q 390.315 306.812 389.494 307.56 Q 388.673 308.309 387.53 308.583 L 387.53 308.615 Q 388.11 309.42 388.681 309.919 Q 389.253 310.418 389.961 310.643 Q 390.67 310.869 391.636 310.869 L 391.636 311.4 L 390.831 311.4 Q 389.494 311.4 388.593 311.215 Q 387.691 311.03 387.095 310.603 Q 386.5 310.176 386.065 309.452 L 385.679 308.792 Q 383.489 308.647 382.217 307.214 Q 380.945 305.781 380.945 303.318 Q 380.945 301.676 381.565 300.444 Q 382.185 299.212 383.336 298.528 Q 384.487 297.844 386.081 297.844 Q 387.691 297.844 388.834 298.512 Q 389.977 299.18 390.589 300.38 Q 391.201 301.579 391.201 303.157 Z M 389.51 303.221 L 389.51 303.221 Q 389.51 301.772 389.076 300.718 Q 388.641 299.663 387.86 299.092 Q 387.079 298.52 386.033 298.52 Q 384.471 298.52 383.553 299.768 Q 382.636 301.016 382.636 303.221 Q 382.636 305.491 383.497 306.812 Q 384.358 308.132 386.097 308.132 Q 387.82 308.132 388.665 306.892 Q 389.51 305.652 389.51 303.221 Z " fill="black" /></g></g></g><g><g><g><path d="M 591.291 146.047 L 591.291 146.047 L 593.177 136.985 Q 593.384 136.088 593.372 135.571 Q 593.361 135.053 592.947 134.846 Q 592.533 134.639 591.475 134.639 L 591.613 133.949 L 597.984 133.949 L 597.846 134.639 Q 596.834 134.639 596.328 134.846 Q 595.822 135.053 595.615 135.571 Q 595.408 136.088 595.224 136.985 L 593.338 146.139 Q 593.269 146.507 593.223 146.806 Q 593.177 147.105 593.177 147.358 Q 593.177 148.002 593.557 148.186 Q 593.936 148.37 595.017 148.37 L 594.879 149.06 L 588.6 149.06 L 588.738 148.37 Q 589.681 148.37 590.153 148.209 Q 590.624 148.048 590.854 147.554 Q 591.084 147.059 591.291 146.047 Z " fill="black" /><path d="M 606.791 145.953 L 606.791 145.953 Q 606.791 146.854 606.38 147.418 Q 605.97 147.981 605.35 148.295 Q 604.73 148.609 604.07 148.77 L 604.07 148.835 Q 604.344 148.996 604.69 149.39 Q 605.036 149.785 605.583 150.549 Q 606.131 151.314 607.016 152.586 Q 607.403 153.117 607.765 153.262 Q 608.127 153.407 608.674 153.407 L 608.674 153.89 L 606.018 153.89 Q 605.358 152.892 604.915 152.224 Q 604.472 151.556 604.166 151.097 Q 603.861 150.638 603.619 150.284 Q 603.378 149.929 603.136 149.575 Q 602.894 149.205 602.693 149.124 Q 602.492 149.044 602.057 149.044 L 601.606 149.044 L 601.606 151.894 Q 601.606 152.554 601.719 152.884 Q 601.832 153.214 602.17 153.31 Q 602.508 153.407 603.2 153.407 L 603.2 153.89 L 598.676 153.89 L 598.676 153.407 Q 599.288 153.407 599.594 153.31 Q 599.9 153.214 600.005 152.892 Q 600.109 152.57 600.109 151.894 L 600.109 144.987 Q 600.109 144.536 600.021 144.278 Q 599.932 144.021 599.626 143.908 Q 599.32 143.795 598.676 143.795 L 598.676 143.312 L 602.637 143.312 Q 603.844 143.312 604.786 143.546 Q 605.728 143.779 606.259 144.351 Q 606.791 144.922 606.791 145.953 Z M 601.606 143.989 L 601.606 143.989 L 601.606 148.416 L 602.218 148.432 Q 603.555 148.368 604.36 147.828 Q 605.165 147.289 605.165 146.017 Q 605.165 145.051 604.569 144.496 Q 603.973 143.94 602.669 143.94 Q 602.122 143.94 601.606 143.989 Z " fill="black" /><path d="M 613.553 152.892 L 613.553 152.892 L 613.488 152.892 Q 612.925 153.391 612.41 153.697 Q 611.894 154.003 611.122 154.003 Q 610.188 154.003 609.697 153.488 Q 609.206 152.972 609.206 152.2 Q 609.206 151.556 609.504 151.113 Q 609.801 150.67 610.292 150.364 Q 610.784 150.058 611.355 149.849 Q 611.927 149.64 612.474 149.495 Q 613.021 149.35 613.44 149.221 L 613.44 148.513 Q 613.44 147.466 613.078 147.023 Q 612.716 146.581 611.991 146.581 Q 611.299 146.581 611.106 146.87 Q 610.912 147.16 610.912 147.885 Q 610.912 148.625 610.204 148.625 Q 609.962 148.625 609.745 148.44 Q 609.528 148.255 609.528 147.853 Q 609.528 147.402 609.874 146.999 Q 610.22 146.597 610.856 146.339 Q 611.492 146.082 612.361 146.082 Q 613.682 146.082 614.229 146.693 Q 614.776 147.305 614.776 148.561 L 614.776 152.216 Q 614.776 152.715 614.889 152.86 Q 615.002 153.005 615.259 153.005 Q 615.485 153.005 615.67 152.892 Q 615.855 152.779 616.016 152.602 L 616.258 152.86 Q 615.855 153.439 615.493 153.705 Q 615.131 153.971 614.519 153.971 Q 613.987 153.971 613.81 153.697 Q 613.633 153.423 613.553 152.892 Z M 613.44 152.409 L 613.44 152.409 L 613.44 149.752 Q 612.716 149.929 612.072 150.171 Q 611.428 150.412 611.025 150.799 Q 610.623 151.185 610.623 151.813 Q 610.623 152.409 610.945 152.763 Q 611.267 153.117 611.782 153.117 Q 612.587 153.117 613.44 152.409 Z " fill="black" /><path d="M 618.946 142.523 L 618.946 142.523 L 618.946 147.45 L 618.995 147.45 Q 619.413 146.935 620.041 146.508 Q 620.669 146.082 621.474 146.082 Q 622.279 146.082 622.883 146.54 Q 623.486 146.999 623.825 147.804 Q 624.163 148.609 624.163 149.656 Q 624.163 151.089 623.663 152.071 Q 623.164 153.053 622.295 153.552 Q 621.426 154.051 620.299 154.051 Q 619.268 154.051 618.584 153.81 Q 617.9 153.568 617.61 153.407 L 617.61 144.359 Q 617.61 143.811 617.489 143.658 Q 617.368 143.506 616.902 143.506 Q 616.708 143.506 616.58 143.522 Q 616.451 143.538 616.451 143.538 L 616.451 143.087 L 618.528 142.523 Z M 618.946 148.158 L 618.946 148.158 L 618.946 152.634 Q 619.172 152.908 619.558 153.149 Q 619.944 153.391 620.588 153.391 Q 621.361 153.391 621.82 152.956 Q 622.279 152.522 622.488 151.789 Q 622.697 151.056 622.697 150.171 Q 622.697 149.398 622.537 148.714 Q 622.375 148.03 621.957 147.603 Q 621.538 147.176 620.765 147.176 Q 620.154 147.176 619.663 147.522 Q 619.172 147.869 618.946 148.158 Z " fill="black" /><path d="M 628.864 153.439 L 628.864 153.439 L 628.864 153.89 L 625.241 153.89 L 625.241 153.439 Q 625.789 153.439 626.022 153.335 Q 626.256 153.23 626.312 152.972 Q 626.368 152.715 626.368 152.264 L 626.368 147.772 Q 626.368 147.257 626.191 147.136 Q 626.014 147.015 625.66 147.015 Q 625.499 147.015 625.378 147.031 Q 625.257 147.048 625.257 147.048 L 625.257 146.581 L 627.286 146.13 L 627.705 146.13 L 627.705 152.264 Q 627.705 152.731 627.769 152.988 Q 627.833 153.246 628.083 153.343 Q 628.333 153.439 628.864 153.439 Z M 627.061 143.055 L 627.061 143.055 Q 627.479 143.055 627.729 143.32 Q 627.978 143.586 627.978 143.956 Q 627.978 144.327 627.729 144.6 Q 627.479 144.874 627.061 144.874 Q 626.658 144.874 626.401 144.6 Q 626.143 144.327 626.143 143.956 Q 626.143 143.586 626.392 143.32 Q 626.642 143.055 627.061 143.055 Z " fill="black" /></g></g></g></svg>